<?xml version="1.0" encoding="utf-8"?>
<!-- Generator: Adobe Illustrator 24.3.0, SVG Export Plug-In . SVG Version: 6.00 Build 0)  -->
<svg version="1.1" xmlns="http://www.w3.org/2000/svg" xmlns:xlink="http://www.w3.org/1999/xlink" x="0px" y="0px"
	 viewBox="0 0 500 500" style="enable-background:new 0 0 500 500;" xml:space="preserve">
<style type="text/css">
	.st0{display:none;fill:#86CFEB;}
	.st1{fill:#E99485;stroke:#231F20;stroke-width:5;stroke-miterlimit:10;}
	.st2{fill:#DFE2E3;stroke:#231F20;stroke-width:5;stroke-miterlimit:10;}
	.st3{fill:#EAA1C7;}
	.st4{fill:#231F20;stroke:#231F20;stroke-width:5;stroke-miterlimit:10;}
	.st5{fill:#FFFFFF;}
	.st6{fill:none;stroke:#231F20;stroke-width:5;stroke-miterlimit:10;}
</style>
<g id="Layer_1">
	<rect class="st0" width="500" height="500"/>
	
		<image style="display:none;overflow:visible;" width="2818" height="2313" xlink:href="../../../../../Users/matte/Downloads/background.png"  transform="matrix(1 0 0 1 -1392.3949 -702.3917)">
	</image>
	<circle class="st0" cx="250" cy="250" r="250"/>
</g>
<g id="Layer_1_copy">
	<path class="st1" d="M462.9,329.2c0,18.4-11.9,26.5-29.4,36.1c-1.5,1.1-3,2.2-4.5,3.3c-3.3-11-7.6-28-7.7-44.1
		c-0.1-15.7,5.1-30.4,9.5-39.8c1.5,1.7,3.2,3,4.9,3.5C456,293.5,462.9,310.8,462.9,329.2z"/>
	<path class="st1" d="M82.6,367.2c-2.2-2-4.2-3.3-6.8-3.5c-22.2-1.1-37.4-18.4-37.7-39.7c-0.3-21.3,17.9-32.2,25-37.1
		c5.7-3.8,11.5-2.5,16.4-4.9c5,10.5,7.7,20.8,8.5,44.7C88.6,344,85.7,357.8,82.6,367.2z"/>
	<path class="st2" d="M421.3,324.5c0.1,16,4.3,33.1,7.7,44.1c-26.1,19.7-65.9,44.1-118.8,57.1c-17.4,4.3-33.7,6.7-48.5,8
		c-1.8,0.1-4.7,0.2-8.4,0.3c-19.9,0.3-91,0.4-149.9-47.1c-5.1-4.1-12.5-10.5-20.8-19.5c3.1-9.4,6-23.2,5.4-40.6
		c-0.8-23.8-3.5-34.2-8.5-44.7c1.3-0.6,2.6-1.6,3.8-3c5.4-6.5,70.2-89.7,170.7-90.3c100.5-0.6,158.8,72.1,164.4,78.3
		c4.1,4.6,8,12.9,12.4,17.7C426.5,294.1,421.2,308.8,421.3,324.5z"/>
	<ellipse class="st3" cx="135.8" cy="364.4" rx="18.4" ry="9.8"/>
	<ellipse class="st3" cx="377.9" cy="364.4" rx="18.4" ry="9.8"/>
	<ellipse class="st4" cx="194.5" cy="323.2" rx="20" ry="36.7"/>
	<ellipse class="st4" cx="317.1" cy="323.2" rx="20" ry="36.7"/>
	<ellipse class="st5" cx="194.5" cy="349.5" rx="11.3" ry="10.5"/>
	<ellipse class="st5" cx="317.1" cy="349.5" rx="11.3" ry="10.5"/>
	<path class="st6" d="M178.6,270.7c0,0,17.6-19.9,38.6-2.3"/>
	<path class="st6" d="M331.6,270.4c0,0-17.6-19.9-38.6-2.3"/>
	<polyline class="st6" points="258.2,187.7 261.8,136.9 286.2,135 277.9,112.4 297,110.5 290.2,85.5 310.5,85.5 	"/>
	<ellipse class="st4" cx="320.9" cy="81.1" rx="16.1" ry="14.4"/>
</g>
</svg>
