<?xml version="1.0" encoding="utf-8"?>
<!-- Generator: Adobe Illustrator 27.4.1, SVG Export Plug-In . SVG Version: 6.00 Build 0)  -->
<svg version="1.1" id="Calque_1" xmlns="http://www.w3.org/2000/svg" xmlns:xlink="http://www.w3.org/1999/xlink" x="0px" y="0px"
	 viewBox="0 0 438 384" style="enable-background:new 0 0 438 384;" xml:space="preserve">
<style type="text/css">
	.st0{fill:#E99485;stroke:#231F20;stroke-width:5;stroke-miterlimit:10;}
	.st1{fill:#DFE2E3;stroke:#231F20;stroke-width:5;stroke-miterlimit:10;}
	.st2{fill:#EAA1C7;}
	.st3{fill:#231F20;stroke:#231F20;stroke-width:5;stroke-miterlimit:10;}
	.st4{fill:#FFFFFF;}
	.st5{fill:none;stroke:#231F20;stroke-width:5;stroke-miterlimit:10;}
</style>
<g id="Layer_1_copy">
	<path class="st0" d="M429.8,267.5c0,18.4-11.9,26.5-29.4,36.1c-1.5,1.1-3,2.2-4.5,3.3c-3.3-11-7.6-28-7.7-44.1
		c-0.1-15.7,5.1-30.4,9.5-39.8c1.5,1.7,3.2,3,4.9,3.5C422.9,231.8,429.8,249.1,429.8,267.5z"/>
	<path class="st0" d="M49.5,305.5c-2.2-2-4.2-3.3-6.8-3.5C20.5,300.9,5.3,283.6,5,262.3c-0.3-21.3,17.9-32.2,25-37.1
		c5.7-3.8,11.5-2.5,16.4-4.9c5,10.5,7.7,20.8,8.5,44.7C55.5,282.3,52.6,296.1,49.5,305.5z"/>
	<path class="st1" d="M388.2,262.8c0.1,16,4.3,33.1,7.7,44.1C369.8,326.6,330,351,277.1,364c-17.4,4.3-33.7,6.7-48.5,8
		c-1.8,0.1-4.7,0.2-8.4,0.3c-19.9,0.3-91,0.4-149.9-47.1c-5.1-4.1-12.5-10.5-20.8-19.5c3.1-9.4,6-23.2,5.4-40.6
		c-0.8-23.8-3.5-34.2-8.5-44.7c1.3-0.6,2.6-1.6,3.8-3c5.4-6.5,70.2-89.7,170.7-90.3s158.8,72.1,164.4,78.3c4.1,4.6,8,12.9,12.4,17.7
		C393.4,232.4,388.1,247.1,388.2,262.8z"/>
	<ellipse class="st2" cx="102.7" cy="302.7" rx="18.4" ry="9.8"/>
	<ellipse class="st2" cx="344.8" cy="302.7" rx="18.4" ry="9.8"/>
	<ellipse class="st3" cx="161.4" cy="261.5" rx="20" ry="36.7"/>
	<ellipse class="st3" cx="284" cy="261.5" rx="20" ry="36.7"/>
	<ellipse class="st4" cx="161.4" cy="287.8" rx="11.3" ry="10.5"/>
	<ellipse class="st4" cx="284" cy="287.8" rx="11.3" ry="10.5"/>
	<path class="st5" d="M145.5,209c0,0,17.6-19.9,38.6-2.3"/>
	<path class="st5" d="M298.5,208.7c0,0-17.6-19.9-38.6-2.3"/>
	<polyline class="st5" points="225.1,126 228.7,75.2 253.1,73.3 244.8,50.7 263.9,48.8 257.1,23.8 277.4,23.8 	"/>
	<ellipse class="st3" cx="287.8" cy="19.4" rx="16.1" ry="14.4"/>
</g>
</svg>
